<svg id="visual" viewBox="0 0 900 900" width="900" height="900" xmlns="http://www.w3.org/2000/svg" xmlns:xlink="http://www.w3.org/1999/xlink" version="1.1"><g stroke-width="1" stroke-linejoin="bevel"><path d="M403 469L339 505L373 516Z" fill="#3498db" stroke="#3498db"></path><path d="M403 469L335 412L339 505Z" fill="#335777" stroke="#335777"></path><path d="M373 516L449 512L403 469Z" fill="#3498db" stroke="#3498db"></path><path d="M254 434L294 556L339 505Z" fill="#2f465d" stroke="#2f465d"></path><path d="M339 505L336 588L373 516Z" fill="#335777" stroke="#335777"></path><path d="M373 516L463 595L449 512Z" fill="#366992" stroke="#366992"></path><path d="M294 556L336 588L339 505Z" fill="#366992" stroke="#366992"></path><path d="M335 412L254 434L339 505Z" fill="#366992" stroke="#366992"></path><path d="M449 512L470 388L403 469Z" fill="#2f465d" stroke="#2f465d"></path><path d="M403 469L470 388L335 412Z" fill="#335777" stroke="#335777"></path><path d="M336 588L463 595L373 516Z" fill="#2f465d" stroke="#2f465d"></path><path d="M449 512L540 475L470 388Z" fill="#2f465d" stroke="#2f465d"></path><path d="M294 556L327 638L336 588Z" fill="#3785bd" stroke="#3785bd"></path><path d="M336 588L327 638L463 595Z" fill="#377baf" stroke="#377baf"></path><path d="M463 595L498 577L449 512Z" fill="#2c3e50" stroke="#2c3e50"></path><path d="M498 577L540 475L449 512Z" fill="#368ecc" stroke="#368ecc"></path><path d="M236 310L180 429L254 434Z" fill="#2c3e50" stroke="#2c3e50"></path><path d="M254 434L138 546L294 556Z" fill="#2c3e50" stroke="#2c3e50"></path><path d="M294 556L270 668L327 638Z" fill="#314f6a" stroke="#314f6a"></path><path d="M236 310L254 434L335 412Z" fill="#3498db" stroke="#3498db"></path><path d="M470 388L323 283L335 412Z" fill="#366992" stroke="#366992"></path><path d="M138 546L270 668L294 556Z" fill="#366992" stroke="#366992"></path><path d="M327 638L476 667L463 595Z" fill="#335777" stroke="#335777"></path><path d="M323 283L236 310L335 412Z" fill="#2c3e50" stroke="#2c3e50"></path><path d="M484 685L476 667L406 782Z" fill="#2f465d" stroke="#2f465d"></path><path d="M463 595L476 667L498 577Z" fill="#2f465d" stroke="#2f465d"></path><path d="M498 577L601 545L540 475Z" fill="#368ecc" stroke="#368ecc"></path><path d="M221 245L223 308L236 310Z" fill="#314f6a" stroke="#314f6a"></path><path d="M236 310L223 308L180 429Z" fill="#366992" stroke="#366992"></path><path d="M223 308L147 397L180 429Z" fill="#335777" stroke="#335777"></path><path d="M180 429L138 546L254 434Z" fill="#356084" stroke="#356084"></path><path d="M332 734L476 667L327 638Z" fill="#3498db" stroke="#3498db"></path><path d="M476 667L570 630L498 577Z" fill="#356084" stroke="#356084"></path><path d="M118 490L138 546L180 429Z" fill="#366992" stroke="#366992"></path><path d="M540 475L594 396L470 388Z" fill="#368ecc" stroke="#368ecc"></path><path d="M470 388L418 220L323 283Z" fill="#366992" stroke="#366992"></path><path d="M664 423L594 396L540 475Z" fill="#3772a0" stroke="#3772a0"></path><path d="M570 630L601 545L498 577Z" fill="#377baf" stroke="#377baf"></path><path d="M147 397L118 490L180 429Z" fill="#366992" stroke="#366992"></path><path d="M484 685L570 630L476 667Z" fill="#368ecc" stroke="#368ecc"></path><path d="M201 773L332 734L270 668Z" fill="#2f465d" stroke="#2f465d"></path><path d="M270 668L332 734L327 638Z" fill="#366992" stroke="#366992"></path><path d="M223 308L138 354L147 397Z" fill="#314f6a" stroke="#314f6a"></path><path d="M147 397L42 411L118 490Z" fill="#377baf" stroke="#377baf"></path><path d="M556 234L418 220L470 388Z" fill="#368ecc" stroke="#368ecc"></path><path d="M323 283L221 245L236 310Z" fill="#314f6a" stroke="#314f6a"></path><path d="M594 396L586 315L470 388Z" fill="#377baf" stroke="#377baf"></path><path d="M301 207L221 245L323 283Z" fill="#314f6a" stroke="#314f6a"></path><path d="M223 308L77 272L138 354Z" fill="#2f465d" stroke="#2f465d"></path><path d="M418 220L301 207L323 283Z" fill="#366992" stroke="#366992"></path><path d="M637 694L613 633L570 630Z" fill="#3785bd" stroke="#3785bd"></path><path d="M570 630L613 633L601 545Z" fill="#3772a0" stroke="#3772a0"></path><path d="M673 493L664 423L540 475Z" fill="#356084" stroke="#356084"></path><path d="M65 696L134 659L40 679Z" fill="#3785bd" stroke="#3785bd"></path><path d="M138 546L134 659L270 668Z" fill="#2f465d" stroke="#2f465d"></path><path d="M673 493L540 475L601 545Z" fill="#3772a0" stroke="#3772a0"></path><path d="M594 396L647 332L586 315Z" fill="#314f6a" stroke="#314f6a"></path><path d="M332 734L406 782L476 667Z" fill="#335777" stroke="#335777"></path><path d="M484 685L637 694L570 630Z" fill="#3772a0" stroke="#3772a0"></path><path d="M328 847L406 782L332 734Z" fill="#368ecc" stroke="#368ecc"></path><path d="M613 633L673 493L601 545Z" fill="#2c3e50" stroke="#2c3e50"></path><path d="M586 315L556 234L470 388Z" fill="#3772a0" stroke="#3772a0"></path><path d="M418 220L402 165L301 207Z" fill="#3785bd" stroke="#3785bd"></path><path d="M647 332L556 234L586 315Z" fill="#2c3e50" stroke="#2c3e50"></path><path d="M406 782L483 769L484 685Z" fill="#335777" stroke="#335777"></path><path d="M499 112L402 165L418 220Z" fill="#377baf" stroke="#377baf"></path><path d="M134 659L189 740L270 668Z" fill="#3785bd" stroke="#3785bd"></path><path d="M664 423L647 332L594 396Z" fill="#3772a0" stroke="#3772a0"></path><path d="M673 493L686 422L664 423Z" fill="#3785bd" stroke="#3785bd"></path><path d="M664 423L686 422L647 332Z" fill="#335777" stroke="#335777"></path><path d="M0 356L42 411L138 354Z" fill="#356084" stroke="#356084"></path><path d="M138 354L42 411L147 397Z" fill="#335777" stroke="#335777"></path><path d="M118 490L0 498L138 546Z" fill="#368ecc" stroke="#368ecc"></path><path d="M114 853L201 773L189 740Z" fill="#3772a0" stroke="#3772a0"></path><path d="M189 740L201 773L270 668Z" fill="#2c3e50" stroke="#2c3e50"></path><path d="M483 769L637 694L484 685Z" fill="#368ecc" stroke="#368ecc"></path><path d="M613 633L775 576L673 493Z" fill="#335777" stroke="#335777"></path><path d="M813 502L749 365L686 422Z" fill="#3498db" stroke="#3498db"></path><path d="M402 165L375 128L301 207Z" fill="#3785bd" stroke="#3785bd"></path><path d="M301 207L149 174L221 245Z" fill="#3785bd" stroke="#3785bd"></path><path d="M413 78L375 128L402 165Z" fill="#368ecc" stroke="#368ecc"></path><path d="M637 694L662 672L613 633Z" fill="#2c3e50" stroke="#2c3e50"></path><path d="M77 234L77 272L221 245Z" fill="#3498db" stroke="#3498db"></path><path d="M221 245L77 272L223 308Z" fill="#3772a0" stroke="#3772a0"></path><path d="M686 422L700 327L647 332Z" fill="#366992" stroke="#366992"></path><path d="M647 332L726 151L556 234Z" fill="#3498db" stroke="#3498db"></path><path d="M749 365L700 327L686 422Z" fill="#366992" stroke="#366992"></path><path d="M0 356L0 498L42 411Z" fill="#377baf" stroke="#377baf"></path><path d="M42 411L0 498L118 490Z" fill="#2f465d" stroke="#2f465d"></path><path d="M134 659L65 696L189 740Z" fill="#2f465d" stroke="#2f465d"></path><path d="M627 123L545 157L556 234Z" fill="#368ecc" stroke="#368ecc"></path><path d="M556 234L545 157L418 220Z" fill="#335777" stroke="#335777"></path><path d="M262 843L328 847L332 734Z" fill="#356084" stroke="#356084"></path><path d="M537 900L603 829L483 769Z" fill="#377baf" stroke="#377baf"></path><path d="M483 769L603 829L637 694Z" fill="#2f465d" stroke="#2f465d"></path><path d="M0 590L134 659L138 546Z" fill="#314f6a" stroke="#314f6a"></path><path d="M201 773L262 843L332 734Z" fill="#3498db" stroke="#3498db"></path><path d="M156 99L149 174L301 207Z" fill="#335777" stroke="#335777"></path><path d="M149 174L77 234L221 245Z" fill="#314f6a" stroke="#314f6a"></path><path d="M77 272L0 356L138 354Z" fill="#2c3e50" stroke="#2c3e50"></path><path d="M160 900L262 843L201 773Z" fill="#3498db" stroke="#3498db"></path><path d="M0 498L0 590L138 546Z" fill="#314f6a" stroke="#314f6a"></path><path d="M0 621L40 679L134 659Z" fill="#368ecc" stroke="#368ecc"></path><path d="M160 900L310 900L262 843Z" fill="#377baf" stroke="#377baf"></path><path d="M0 326L0 356L77 272Z" fill="#3772a0" stroke="#3772a0"></path><path d="M545 157L499 112L418 220Z" fill="#366992" stroke="#366992"></path><path d="M0 590L0 621L134 659Z" fill="#2f465d" stroke="#2f465d"></path><path d="M77 234L0 326L77 272Z" fill="#3785bd" stroke="#3785bd"></path><path d="M813 502L686 422L673 493Z" fill="#366992" stroke="#366992"></path><path d="M726 151L627 123L556 234Z" fill="#368ecc" stroke="#368ecc"></path><path d="M499 112L413 78L402 165Z" fill="#377baf" stroke="#377baf"></path><path d="M304 39L156 99L301 207Z" fill="#314f6a" stroke="#314f6a"></path><path d="M0 621L0 665L40 679Z" fill="#3785bd" stroke="#3785bd"></path><path d="M40 679L0 824L65 696Z" fill="#368ecc" stroke="#368ecc"></path><path d="M805 607L775 576L770 702Z" fill="#3498db" stroke="#3498db"></path><path d="M662 672L775 576L613 633Z" fill="#366992" stroke="#366992"></path><path d="M418 900L483 769L406 782Z" fill="#368ecc" stroke="#368ecc"></path><path d="M637 694L770 702L662 672Z" fill="#3772a0" stroke="#3772a0"></path><path d="M328 847L415 900L406 782Z" fill="#368ecc" stroke="#368ecc"></path><path d="M310 900L415 900L328 847Z" fill="#3785bd" stroke="#3785bd"></path><path d="M415 900L418 900L406 782Z" fill="#314f6a" stroke="#314f6a"></path><path d="M114 853L189 740L65 696Z" fill="#3498db" stroke="#3498db"></path><path d="M262 843L310 900L328 847Z" fill="#314f6a" stroke="#314f6a"></path><path d="M149 174L70 84L77 234Z" fill="#2c3e50" stroke="#2c3e50"></path><path d="M77 234L0 143L0 326Z" fill="#3785bd" stroke="#3785bd"></path><path d="M304 39L301 207L375 128Z" fill="#2f465d" stroke="#2f465d"></path><path d="M499 112L467 0L413 78Z" fill="#366992" stroke="#366992"></path><path d="M545 157L548 74L499 112Z" fill="#2c3e50" stroke="#2c3e50"></path><path d="M726 151L647 332L700 327Z" fill="#356084" stroke="#356084"></path><path d="M627 123L548 74L545 157Z" fill="#2c3e50" stroke="#2c3e50"></path><path d="M375 0L304 39L413 78Z" fill="#3498db" stroke="#3498db"></path><path d="M413 78L304 39L375 128Z" fill="#2c3e50" stroke="#2c3e50"></path><path d="M775 576L813 502L673 493Z" fill="#356084" stroke="#356084"></path><path d="M0 824L114 853L65 696Z" fill="#366992" stroke="#366992"></path><path d="M418 900L537 900L483 769Z" fill="#3498db" stroke="#3498db"></path><path d="M770 702L775 576L662 672Z" fill="#366992" stroke="#366992"></path><path d="M775 576L805 607L813 502Z" fill="#2f465d" stroke="#2f465d"></path><path d="M700 846L770 702L637 694Z" fill="#3772a0" stroke="#3772a0"></path><path d="M700 846L637 694L603 829Z" fill="#356084" stroke="#356084"></path><path d="M813 502L813 356L749 365Z" fill="#368ecc" stroke="#368ecc"></path><path d="M749 365L821 327L700 327Z" fill="#3785bd" stroke="#3785bd"></path><path d="M114 853L160 900L201 773Z" fill="#3498db" stroke="#3498db"></path><path d="M627 123L600 62L548 74Z" fill="#377baf" stroke="#377baf"></path><path d="M467 0L375 0L413 78Z" fill="#366992" stroke="#366992"></path><path d="M672 0L600 62L627 123Z" fill="#377baf" stroke="#377baf"></path><path d="M467 0L499 112L548 74Z" fill="#335777" stroke="#335777"></path><path d="M304 39L201 0L156 99Z" fill="#335777" stroke="#335777"></path><path d="M900 405L821 327L813 356Z" fill="#366992" stroke="#366992"></path><path d="M813 356L821 327L749 365Z" fill="#3785bd" stroke="#3785bd"></path><path d="M375 0L313 0L304 39Z" fill="#3772a0" stroke="#3772a0"></path><path d="M821 327L726 151L700 327Z" fill="#3772a0" stroke="#3772a0"></path><path d="M589 0L467 0L548 74Z" fill="#314f6a" stroke="#314f6a"></path><path d="M759 60L718 133L726 151Z" fill="#366992" stroke="#366992"></path><path d="M726 151L718 133L627 123Z" fill="#368ecc" stroke="#368ecc"></path><path d="M49 0L70 84L156 99Z" fill="#3772a0" stroke="#3772a0"></path><path d="M156 99L70 84L149 174Z" fill="#2c3e50" stroke="#2c3e50"></path><path d="M671 900L700 846L603 829Z" fill="#335777" stroke="#335777"></path><path d="M70 84L0 143L77 234Z" fill="#377baf" stroke="#377baf"></path><path d="M0 665L0 824L40 679Z" fill="#377baf" stroke="#377baf"></path><path d="M114 853L37 900L160 900Z" fill="#3772a0" stroke="#3772a0"></path><path d="M313 0L201 0L304 39Z" fill="#366992" stroke="#366992"></path><path d="M0 0L0 111L70 84Z" fill="#314f6a" stroke="#314f6a"></path><path d="M70 84L0 111L0 143Z" fill="#368ecc" stroke="#368ecc"></path><path d="M537 900L671 900L603 829Z" fill="#2f465d" stroke="#2f465d"></path><path d="M672 0L589 0L600 62Z" fill="#366992" stroke="#366992"></path><path d="M600 62L589 0L548 74Z" fill="#368ecc" stroke="#368ecc"></path><path d="M900 577L900 483L813 502Z" fill="#377baf" stroke="#377baf"></path><path d="M813 502L900 405L813 356Z" fill="#366992" stroke="#366992"></path><path d="M900 577L813 502L805 607Z" fill="#3772a0" stroke="#3772a0"></path><path d="M900 577L805 607L900 677Z" fill="#3785bd" stroke="#3785bd"></path><path d="M805 607L770 702L858 709Z" fill="#3498db" stroke="#3498db"></path><path d="M0 824L37 900L114 853Z" fill="#2f465d" stroke="#2f465d"></path><path d="M900 483L900 405L813 502Z" fill="#366992" stroke="#366992"></path><path d="M821 327L863 200L726 151Z" fill="#377baf" stroke="#377baf"></path><path d="M858 709L770 702L821 816Z" fill="#368ecc" stroke="#368ecc"></path><path d="M821 816L770 702L700 846Z" fill="#314f6a" stroke="#314f6a"></path><path d="M671 900L730 900L700 846Z" fill="#2f465d" stroke="#2f465d"></path><path d="M0 824L0 900L37 900Z" fill="#314f6a" stroke="#314f6a"></path><path d="M791 900L821 816L700 846Z" fill="#356084" stroke="#356084"></path><path d="M685 0L672 0L627 123Z" fill="#377baf" stroke="#377baf"></path><path d="M685 0L627 123L718 133Z" fill="#3772a0" stroke="#3772a0"></path><path d="M900 678L900 677L858 709Z" fill="#3785bd" stroke="#3785bd"></path><path d="M858 709L900 677L805 607Z" fill="#2f465d" stroke="#2f465d"></path><path d="M900 241L863 200L821 327Z" fill="#2f465d" stroke="#2f465d"></path><path d="M900 851L900 678L858 709Z" fill="#3498db" stroke="#3498db"></path><path d="M863 200L759 60L726 151Z" fill="#3498db" stroke="#3498db"></path><path d="M201 0L49 0L156 99Z" fill="#366992" stroke="#366992"></path><path d="M759 60L685 0L718 133Z" fill="#314f6a" stroke="#314f6a"></path><path d="M863 200L900 116L759 60Z" fill="#356084" stroke="#356084"></path><path d="M900 405L900 241L821 327Z" fill="#356084" stroke="#356084"></path><path d="M900 241L900 237L863 200Z" fill="#356084" stroke="#356084"></path><path d="M730 900L791 900L700 846Z" fill="#314f6a" stroke="#314f6a"></path><path d="M821 816L900 851L858 709Z" fill="#3785bd" stroke="#3785bd"></path><path d="M49 0L0 0L70 84Z" fill="#314f6a" stroke="#314f6a"></path><path d="M900 237L900 116L863 200Z" fill="#377baf" stroke="#377baf"></path><path d="M759 60L819 0L685 0Z" fill="#356084" stroke="#356084"></path><path d="M791 900L900 851L821 816Z" fill="#2f465d" stroke="#2f465d"></path><path d="M900 116L819 0L759 60Z" fill="#3772a0" stroke="#3772a0"></path><path d="M791 900L900 900L900 851Z" fill="#335777" stroke="#335777"></path><path d="M900 116L900 0L819 0Z" fill="#2c3e50" stroke="#2c3e50"></path></g></svg>