<svg id="visual" viewBox="0 0 900 250" width="900" height="250" xmlns="http://www.w3.org/2000/svg" xmlns:xlink="http://www.w3.org/1999/xlink" version="1.1"><rect x="0" y="0" width="900" height="250" fill="#bdc3c7"></rect><path d="M0 72L15 77.2C30 82.3 60 92.7 90 98.7C120 104.7 150 106.3 180 107.7C210 109 240 110 270 103.3C300 96.7 330 82.3 360 79.3C390 76.3 420 84.7 450 90.5C480 96.3 510 99.7 540 97.8C570 96 600 89 630 87.2C660 85.3 690 88.7 720 86.7C750 84.7 780 77.3 810 72.8C840 68.3 870 66.7 885 65.8L900 65L900 251L885 251C870 251 840 251 810 251C780 251 750 251 720 251C690 251 660 251 630 251C600 251 570 251 540 251C510 251 480 251 450 251C420 251 390 251 360 251C330 251 300 251 270 251C240 251 210 251 180 251C150 251 120 251 90 251C60 251 30 251 15 251L0 251Z" fill="#ecf0f1"></path><path d="M0 78L15 84.5C30 91 60 104 90 109.5C120 115 150 113 180 107.5C210 102 240 93 270 92C300 91 330 98 360 105C390 112 420 119 450 117.3C480 115.7 510 105.3 540 99.8C570 94.3 600 93.7 630 99.7C660 105.7 690 118.3 720 122.5C750 126.7 780 122.3 810 113.7C840 105 870 92 885 85.5L900 79L900 251L885 251C870 251 840 251 810 251C780 251 750 251 720 251C690 251 660 251 630 251C600 251 570 251 540 251C510 251 480 251 450 251C420 251 390 251 360 251C330 251 300 251 270 251C240 251 210 251 180 251C150 251 120 251 90 251C60 251 30 251 15 251L0 251Z" fill="#d1d5d6"></path><path d="M0 96L15 103.8C30 111.7 60 127.3 90 127C120 126.7 150 110.3 180 109.2C210 108 240 122 270 126.3C300 130.7 330 125.3 360 124.8C390 124.3 420 128.7 450 128.5C480 128.3 510 123.7 540 119.7C570 115.7 600 112.3 630 111.3C660 110.3 690 111.7 720 111.5C750 111.3 780 109.7 810 109.3C840 109 870 110 885 110.5L900 111L900 251L885 251C870 251 840 251 810 251C780 251 750 251 720 251C690 251 660 251 630 251C600 251 570 251 540 251C510 251 480 251 450 251C420 251 390 251 360 251C330 251 300 251 270 251C240 251 210 251 180 251C150 251 120 251 90 251C60 251 30 251 15 251L0 251Z" fill="#b7bbbc"></path><path d="M0 113L15 116.5C30 120 60 127 90 132C120 137 150 140 180 137.5C210 135 240 127 270 125.3C300 123.7 330 128.3 360 130.8C390 133.3 420 133.7 450 133C480 132.3 510 130.7 540 127.8C570 125 600 121 630 124.8C660 128.7 690 140.3 720 141.7C750 143 780 134 810 129.8C840 125.7 870 126.3 885 126.7L900 127L900 251L885 251C870 251 840 251 810 251C780 251 750 251 720 251C690 251 660 251 630 251C600 251 570 251 540 251C510 251 480 251 450 251C420 251 390 251 360 251C330 251 300 251 270 251C240 251 210 251 180 251C150 251 120 251 90 251C60 251 30 251 15 251L0 251Z" fill="#9ea2a3"></path><path d="M0 139L15 140.5C30 142 60 145 90 146.7C120 148.3 150 148.7 180 145.5C210 142.3 240 135.7 270 139C300 142.3 330 155.7 360 156.2C390 156.7 420 144.3 450 142.3C480 140.3 510 148.7 540 151.5C570 154.3 600 151.7 630 148.3C660 145 690 141 720 142.3C750 143.7 780 150.3 810 155.5C840 160.7 870 164.3 885 166.2L900 168L900 251L885 251C870 251 840 251 810 251C780 251 750 251 720 251C690 251 660 251 630 251C600 251 570 251 540 251C510 251 480 251 450 251C420 251 390 251 360 251C330 251 300 251 270 251C240 251 210 251 180 251C150 251 120 251 90 251C60 251 30 251 15 251L0 251Z" fill="#85898a"></path><path d="M0 179L15 173C30 167 60 155 90 149.7C120 144.3 150 145.7 180 146C210 146.3 240 145.7 270 147.7C300 149.7 330 154.3 360 155.5C390 156.7 420 154.3 450 152.7C480 151 510 150 540 150.7C570 151.3 600 153.7 630 154.3C660 155 690 154 720 155.8C750 157.7 780 162.3 810 160.3C840 158.3 870 149.7 885 145.3L900 141L900 251L885 251C870 251 840 251 810 251C780 251 750 251 720 251C690 251 660 251 630 251C600 251 570 251 540 251C510 251 480 251 450 251C420 251 390 251 360 251C330 251 300 251 270 251C240 251 210 251 180 251C150 251 120 251 90 251C60 251 30 251 15 251L0 251Z" fill="#6d7172"></path><path d="M0 188L15 187.5C30 187 60 186 90 181.7C120 177.3 150 169.7 180 165.3C210 161 240 160 270 164.2C300 168.3 330 177.7 360 180.5C390 183.3 420 179.7 450 176.8C480 174 510 172 540 171.3C570 170.7 600 171.3 630 170C660 168.7 690 165.3 720 163.2C750 161 780 160 810 161C840 162 870 165 885 166.5L900 168L900 251L885 251C870 251 840 251 810 251C780 251 750 251 720 251C690 251 660 251 630 251C600 251 570 251 540 251C510 251 480 251 450 251C420 251 390 251 360 251C330 251 300 251 270 251C240 251 210 251 180 251C150 251 120 251 90 251C60 251 30 251 15 251L0 251Z" fill="#565a5b"></path><path d="M0 189L15 188.5C30 188 60 187 90 188.8C120 190.7 150 195.3 180 197.2C210 199 240 198 270 197.5C300 197 330 197 360 197C390 197 420 197 450 196.2C480 195.3 510 193.7 540 192.2C570 190.7 600 189.3 630 188.3C660 187.3 690 186.7 720 186.7C750 186.7 780 187.3 810 190.5C840 193.7 870 199.3 885 202.2L900 205L900 251L885 251C870 251 840 251 810 251C780 251 750 251 720 251C690 251 660 251 630 251C600 251 570 251 540 251C510 251 480 251 450 251C420 251 390 251 360 251C330 251 300 251 270 251C240 251 210 251 180 251C150 251 120 251 90 251C60 251 30 251 15 251L0 251Z" fill="#404445"></path><path d="M0 204L15 206.2C30 208.3 60 212.7 90 212C120 211.3 150 205.7 180 205C210 204.3 240 208.7 270 207.3C300 206 330 199 360 199.7C390 200.3 420 208.7 450 211.8C480 215 510 213 540 211.2C570 209.3 600 207.7 630 208.3C660 209 690 212 720 209.7C750 207.3 780 199.7 810 197.2C840 194.7 870 197.3 885 198.7L900 200L900 251L885 251C870 251 840 251 810 251C780 251 750 251 720 251C690 251 660 251 630 251C600 251 570 251 540 251C510 251 480 251 450 251C420 251 390 251 360 251C330 251 300 251 270 251C240 251 210 251 180 251C150 251 120 251 90 251C60 251 30 251 15 251L0 251Z" fill="#2b2f30"></path><path d="M0 229L15 226.7C30 224.3 60 219.7 90 219C120 218.3 150 221.7 180 223.5C210 225.3 240 225.7 270 225.5C300 225.3 330 224.7 360 222.7C390 220.7 420 217.3 450 218.2C480 219 510 224 540 223.8C570 223.7 600 218.3 630 215.2C660 212 690 211 720 209.8C750 208.7 780 207.3 810 208.3C840 209.3 870 212.7 885 214.3L900 216L900 251L885 251C870 251 840 251 810 251C780 251 750 251 720 251C690 251 660 251 630 251C600 251 570 251 540 251C510 251 480 251 450 251C420 251 390 251 360 251C330 251 300 251 270 251C240 251 210 251 180 251C150 251 120 251 90 251C60 251 30 251 15 251L0 251Z" fill="#181b1c"></path><path d="M0 241L15 238.2C30 235.3 60 229.7 90 226.3C120 223 150 222 180 222.5C210 223 240 225 270 227C300 229 330 231 360 231C390 231 420 229 450 228.3C480 227.7 510 228.3 540 230.7C570 233 600 237 630 237.7C660 238.3 690 235.7 720 233.7C750 231.7 780 230.3 810 229.2C840 228 870 227 885 226.5L900 226L900 251L885 251C870 251 840 251 810 251C780 251 750 251 720 251C690 251 660 251 630 251C600 251 570 251 540 251C510 251 480 251 450 251C420 251 390 251 360 251C330 251 300 251 270 251C240 251 210 251 180 251C150 251 120 251 90 251C60 251 30 251 15 251L0 251Z" fill="#000000"></path></svg>