<svg id="visual" viewBox="0 0 900 250" width="900" height="250" xmlns="http://www.w3.org/2000/svg" xmlns:xlink="http://www.w3.org/1999/xlink" version="1.1">
    <path d="M0 39L50 37.3C100 35.7 200 32.3 300 33.5C400 34.7 500 40.3 600 42.8C700 45.3 800 44.7 850 44.3L900 44L900 0L850 0C800 0 700 0 600 0C500 0 400 0 300 0C200 0 100 0 50 0L0 0Z" fill="#ffffff"></path>
    <path d="M0 39L50 39.3C100 39.7 200 40.3 300 45.7C400 51 500 61 600 65.7C700 70.3 800 69.7 850 69.3L900 69L900 42L850 42.3C800 42.7 700 43.3 600 40.8C500 38.3 400 32.7 300 31.5C200 30.3 100 33.7 50 35.3L0 37Z" fill="#ecf3fb"></path>
    <path d="M0 39L50 43.5C100 48 200 57 300 62.8C400 68.7 500 71.3 600 74.3C700 77.3 800 80.7 850 82.3L900 84L900 67L850 67.3C800 67.7 700 68.3 600 63.7C500 59 400 49 300 43.7C200 38.3 100 37.7 50 37.3L0 37Z" fill="#dae7f7"></path>
    <path d="M0 66L50 74.3C100 82.7 200 99.3 300 103.5C400 107.7 500 99.3 600 98.5C700 97.7 800 104.3 850 107.7L900 111L900 82L850 80.3C800 78.7 700 75.3 600 72.3C500 69.3 400 66.7 300 60.8C200 55 100 46 50 41.5L0 37Z" fill="#c7dbf3"></path>
    <path d="M0 194L50 190.2C100 186.3 200 178.7 300 163.7C400 148.7 500 126.3 600 126.8C700 127.3 800 150.7 850 162.3L900 174L900 109L850 105.7C800 102.3 700 95.7 600 96.5C500 97.3 400 105.7 300 101.5C200 97.3 100 80.7 50 72.3L0 64Z" fill="#b3d0ef"></path>
    <path d="M0 199L50 196C100 193 200 187 300 174.5C400 162 500 143 600 145.5C700 148 800 172 850 184L900 196L900 172L850 160.3C800 148.7 700 125.3 600 124.8C500 124.3 400 146.7 300 161.7C200 176.7 100 184.3 50 188.2L0 192Z" fill="#9fc4eb"></path>
    <path d="M0 226L50 222.7C100 219.3 200 212.7 300 206.8C400 201 500 196 600 196.5C700 197 800 203 850 206L900 209L900 194L850 182C800 170 700 146 600 143.5C500 141 400 160 300 172.5C200 185 100 191 50 194L0 197Z" fill="#89b9e7"></path>
    <path d="M0 234L50 234C100 234 200 234 300 232.7C400 231.3 500 228.7 600 226.2C700 223.7 800 221.3 850 220.2L900 219L900 207L850 204C800 201 700 195 600 194.5C500 194 400 199 300 204.8C200 210.7 100 217.3 50 220.7L0 224Z" fill="#72aee3"></path>
    <path d="M0 236L50 237.7C100 239.3 200 242.7 300 245.2C400 247.7 500 249.3 600 245.7C700 242 800 233 850 228.5L900 224L900 217L850 218.2C800 219.3 700 221.7 600 224.2C500 226.7 400 229.3 300 230.7C200 232 100 232 50 232L0 232Z" fill="#58a3df"></path>
    <path d="M0 251L50 251C100 251 200 251 300 251C400 251 500 251 600 251C700 251 800 251 850 251L900 251L900 222L850 226.5C800 231 700 240 600 243.7C500 247.3 400 245.7 300 243.2C200 240.7 100 237.3 50 235.7L0 234Z" fill="#3498db"></path>
</svg>