<svg id="visual" viewBox="0 0 900 250" width="900" height="250" xmlns="http://www.w3.org/2000/svg" xmlns:xlink="http://www.w3.org/1999/xlink" version="1.1">
    <rect x="0" y="0" width="900" height="250" fill="#3498db"></rect>
    <path d="M0 191L5.3 187.8C10.7 184.7 21.3 178.3 32 166.8C42.7 155.3 53.3 138.7 64 150C74.7 161.3 85.3 200.7 96.2 217.7C107 234.7 118 229.3 128.8 222.2C139.7 215 150.3 206 161 190.2C171.7 174.3 182.3 151.7 193 155.7C203.7 159.7 214.3 190.3 225 203C235.7 215.7 246.3 210.3 257 198C267.7 185.7 278.3 166.3 289 152.8C299.7 139.3 310.3 131.7 321.2 129.7C332 127.7 343 131.3 353.8 149.2C364.7 167 375.3 199 386 194.3C396.7 189.7 407.3 148.3 418 145.5C428.7 142.7 439.3 178.3 450 187.2C460.7 196 471.3 178 482 165.3C492.7 152.7 503.3 145.3 514 146.8C524.7 148.3 535.3 158.7 546.2 170C557 181.3 568 193.7 578.8 186.8C589.7 180 600.3 154 611 148.8C621.7 143.7 632.3 159.3 643 177.5C653.7 195.7 664.3 216.3 675 210.8C685.7 205.3 696.3 173.7 707 171.3C717.7 169 728.3 196 739 212.3C749.7 228.7 760.3 234.3 771.2 237.3C782 240.3 793 240.7 803.8 237.2C814.7 233.7 825.3 226.3 836 220.2C846.7 214 857.3 209 868 193.3C878.7 177.7 889.3 151.3 894.7 138.2L900 125L900 251L894.7 251C889.3 251 878.7 251 868 251C857.3 251 846.7 251 836 251C825.3 251 814.7 251 803.8 251C793 251 782 251 771.2 251C760.3 251 749.7 251 739 251C728.3 251 717.7 251 707 251C696.3 251 685.7 251 675 251C664.3 251 653.7 251 643 251C632.3 251 621.7 251 611 251C600.3 251 589.7 251 578.8 251C568 251 557 251 546.2 251C535.3 251 524.7 251 514 251C503.3 251 492.7 251 482 251C471.3 251 460.7 251 450 251C439.3 251 428.7 251 418 251C407.3 251 396.7 251 386 251C375.3 251 364.7 251 353.8 251C343 251 332 251 321.2 251C310.3 251 299.7 251 289 251C278.3 251 267.7 251 257 251C246.3 251 235.7 251 225 251C214.3 251 203.7 251 193 251C182.3 251 171.7 251 161 251C150.3 251 139.7 251 128.8 251C118 251 107 251 96.2 251C85.3 251 74.7 251 64 251C53.3 251 42.7 251 32 251C21.3 251 10.7 251 5.3 251L0 251Z" fill="#bdc3c7" stroke-linecap="round" stroke-linejoin="miter"></path>
</svg>